Wiener Philharmoniker - New Year\\\\\\\\\\\\\\\\\\\\\\\\\\\\\\\\\\\\\\\\\\\\\\\\\\\\\\\\\\\\\\\\\\\\\\\\\\\\\\\\\\\\\\\\\\\\\\\\\\\\\\\\\\\\\\\\\\\\\\\\\\\\\\\'s Eve with Deutsche Grammophon (2CD, 2011)
EAC Rip | FLAC (image & cue & log)| tracks: 27 | Scans | 2:34:37 | ~ 771 Mb
Label: Universal | Live recordings | Genre: Classic, orchestra

A superb collection of Vienna waltzes, marches and polkas, selected from the genuine Deutsche Grammophon recordings of the famous Philharmonic of Vienna under the magic baguette of Herbert Von Karajan, Claudio Abbado and other legends. Dear friends, welcome the new year 2012 with the most uplifting music in the world, the famous Strauss\\\\\\\\\\\\\\\\\\\\\\\\\\\\\\\\\\\\\\\\\\\\\\\\\\\\\\\\\\\\\\\\\\\\\\\\\\\\\\\\\\\\\\\\\\\\\\\\\\\\\\\\\\\\\\\\\\\\\\\\\\\\\\\' masterpieces, performed \\\\\\\\\\\\\\\\\\\\\\\\\\\\\\\\\\\\\\\\\\\\\\\\\\\\\\\\\\\\\\\\\\\\\\\\\\\\\\\\\\\\\\\\\\\\\\\\\\\\\\\\\\\\\\\\\\\\\\\\\\\\\\\"at home\\\\\\\\\\\\\\\\\\\\\\\\\\\\\\\\\\\\\\\\\\\\\\\\\\\\\\\\\\\\\\\\\\\\\\\\\\\\\\\\\\\\\\\\\\\\\\\\\\\\\\\\\\\\\\\\\\\\\\\\\\\\\\\". Happy New Year.

TRACKLIST

CD1 (1:17:49 | ~ 389 Mb)
01. Johann Strauss II - The blue Danube, op. 314
02. Johann Strauss II - Thunder and lighting, op. 324
03. Johann Strauss II - Morning papers, op. 279
04. Johann Strauss II - Bandits\\\\\\\\\\\\\\\\\\\\\\\\\\\\\\\\\\\\\\\\\\\\\\\\\\\\\\\\\\\\\\\\\\\\\\\\\\\\\\\\\\\\\\\\\\\\\\\\\\\\\\\\\\\\\\\\\\\\\\\\\\\\\\\' galop, op. 378
05. Johann Strauss II - Emperor waltz, op. 437
06. Johann Strauss II - Hunting, op. 373
07. Johann Strauss II - Viennese Bonbons, op. 307
08. Johann Strauss I - Beloved Anna Polka, op. 137
09. Johann Strauss II - Accelarations, op. 234
10. Josef Strauss - Burning love, op. 129
11. Josef Strauss - The dragonfly, op. 210
12. Johann Strauss II - \\\\\\\\\\\\\\\\\\\\\\\\\\\\\\\\\\\\\\\\\\\\\\\\\\\\\\\\\\\\\\\\\\\\\\\\\\\\\\\\\\\\\\\\\\\\\\\\\\\\\\\\\\\\\\\\\\\\\\\\\\\\\\\'Die Fledermaus\\\\\\\\\\\\\\\\\\\\\\\\\\\\\\\\\\\\\\\\\\\\\\\\\\\\\\\\\\\\\\\\\\\\\\\\\\\\\\\\\\\\\\\\\\\\\\\\\\\\\\\\\\\\\\\\\\\\\\\\\\\\\\\' Overture

CD2 (1:16:48 | ~ 382 Mb)
01. Johann Strauss II - Vienna blood, op. 354
02. Johann Strauss II - Celebration march, op. 126
03. Johann Strauss II - Light of heart, op. 319
04. Eduard Strauss - Without brake, op. 238
05. Josef Strauss - Music of the spheres, op. 235
06. Johann Strauss II & Josef Strauss - Pizzicato Polka, op. 449
07. Josef Strauss - Watercolours, op. 258
08. Josef Strauss - On the wing, op. 230
09. Johann Strauss II - Voices of Spring, op. 410
10. Johann Strauss II - Egyptian march, op. 335
11. Johann Strauss II - Anna Polka, op. 117
12. Johann Strauss II - Tales from the Vienna Woods, op.325
13. Josef Strauss - On holiday, op. 133
14. Josef Strauss - Carefree, op. 271
15. Johann Strauss I - Radetzky march, op. 228

EAC log CD1
Exact Audio Copy V1.0 beta 3 from 29. August 2011

EAC extraction logfile from 30. December 2011, 15:02

Wiener Philharmoniker / Best of New Year\\\\\\\\\\\\\\\\\\\\\\\\\\\\\\\\\\\\\\\\\\\\\\\\\\\\\\\\\\\\\\\\\\\\\\\\\\\\\\\\\\\\\\\\\\\\\\\\\\\\\\\\\\\\\\\\\\\\\\\\\\\\\\\'s Concert

Used drive : HL-DT-STDVDRAM GH10N Adapter: 1 ID: 1

Read mode : Secure
Utilize accurate stream : Yes
Defeat audio cache : Yes
Make use of C2 pointers : No

Read offset correction : 667
Overread into Lead-In and Lead-Out : No
Fill up missing offset samples with silence : Yes
Delete leading and trailing silent blocks : No
Null samples used in CRC calculations : Yes
Used interface : Native Win32 interface for Win NT & 2000

Used output format : User Defined Encoder
Selected bitrate : 1024 kBit/s
Quality : High
Add ID3 tag : Yes
Command line compressor : C:\\\\\\\\\\\\\\\\\\\\\\\\\\\\\\\\\\\\\\\\\\\\\\\\\\\\\\\\\\\\\\\\\\\\\\\\\\\\\\\\\\\\\\\\\\\\\\\\\\\\\\\\\\\\\\\\\\\\\\\\\\\\\\\\Program Files\\\\\\\\\\\\\\\\\\\\\\\\\\\\\\\\\\\\\\\\\\\\\\\\\\\\\\\\\\\\\\\\\\\\\\\\\\\\\\\\\\\\\\\\\\\\\\\\\\\\\\\\\\\\\\\\\\\\\\\\\\\\\\\\Exact Audio Copy New\\\\\\\\\\\\\\\\\\\\\\\\\\\\\\\\\\\\\\\\\\\\\\\\\\\\\\\\\\\\\\\\\\\\\\\\\\\\\\\\\\\\\\\\\\\\\\\\\\\\\\\\\\\\\\\\\\\\\\\\\\\\\\\\Flac\\\\\\\\\\\\\\\\\\\\\\\\\\\\\\\\\\\\\\\\\\\\\\\\\\\\\\\\\\\\\\\\\\\\\\\\\\\\\\\\\\\\\\\\\\\\\\\\\\\\\\\\\\\\\\\\\\\\\\\\\\\\\\\\flac.exe
Additional command line options : -V -5 -T \\\\\\\\\\\\\\\\\\\\\\\\\\\\\\\\\\\\\\\\\\\\\\\\\\\\\\\\\\\\\\\\\\\\\\\\\\\\\\\\\\\\\\\\\\\\\\\\\\\\\\\\\\\\\\\\\\\\\\\\\\\\\\\"artist=%artist%\\\\\\\\\\\\\\\\\\\\\\\\\\\\\\\\\\\\\\\\\\\\\\\\\\\\\\\\\\\\\\\\\\\\\\\\\\\\\\\\\\\\\\\\\\\\\\\\\\\\\\\\\\\\\\\\\\\\\\\\\\\\\\\" -T \\\\\\\\\\\\\\\\\\\\\\\\\\\\\\\\\\\\\\\\\\\\\\\\\\\\\\\\\\\\\\\\\\\\\\\\\\\\\\\\\\\\\\\\\\\\\\\\\\\\\\\\\\\\\\\\\\\\\\\\\\\\\\\"title=%title%\\\\\\\\\\\\\\\\\\\\\\\\\\\\\\\\\\\\\\\\\\\\\\\\\\\\\\\\\\\\\\\\\\\\\\\\\\\\\\\\\\\\\\\\\\\\\\\\\\\\\\\\\\\\\\\\\\\\\\\\\\\\\\\" -T \\\\\\\\\\\\\\\\\\\\\\\\\\\\\\\\\\\\\\\\\\\\\\\\\\\\\\\\\\\\\\\\\\\\\\\\\\\\\\\\\\\\\\\\\\\\\\\\\\\\\\\\\\\\\\\\\\\\\\\\\\\\\\\"album=%albumtitle%\\\\\\\\\\\\\\\\\\\\\\\\\\\\\\\\\\\\\\\\\\\\\\\\\\\\\\\\\\\\\\\\\\\\\\\\\\\\\\\\\\\\\\\\\\\\\\\\\\\\\\\\\\\\\\\\\\\\\\\\\\\\\\\" -T \\\\\\\\\\\\\\\\\\\\\\\\\\\\\\\\\\\\\\\\\\\\\\\\\\\\\\\\\\\\\\\\\\\\\\\\\\\\\\\\\\\\\\\\\\\\\\\\\\\\\\\\\\\\\\\\\\\\\\\\\\\\\\\"tracknumber=%tracknr2%\\\\\\\\\\\\\\\\\\\\\\\\\\\\\\\\\\\\\\\\\\\\\\\\\\\\\\\\\\\\\\\\\\\\\\\\\\\\\\\\\\\\\\\\\\\\\\\\\\\\\\\\\\\\\\\\\\\\\\\\\\\\\\\" -T \\\\\\\\\\\\\\\\\\\\\\\\\\\\\\\\\\\\\\\\\\\\\\\\\\\\\\\\\\\\\\\\\\\\\\\\\\\\\\\\\\\\\\\\\\\\\\\\\\\\\\\\\\\\\\\\\\\\\\\\\\\\\\\"genre=%genre%\\\\\\\\\\\\\\\\\\\\\\\\\\\\\\\\\\\\\\\\\\\\\\\\\\\\\\\\\\\\\\\\\\\\\\\\\\\\\\\\\\\\\\\\\\\\\\\\\\\\\\\\\\\\\\\\\\\\\\\\\\\\\\\" -5 %source%


TOC of the extracted CD

Track | Start | Length | Start sector | End sector 
---------------------------------------------------------
1 | 0:00.00 | 10:12.18 | 0 | 45917 
2 | 10:12.18 | 3:30.06 | 45918 | 61673 
3 | 13:42.24 | 9:09.67 | 61674 | 102915 
4 | 22:52.16 | 2:42.57 | 102916 | 115122 
5 | 25:34.73 | 10:23.22 | 115123 | 161869 
6 | 35:58.20 | 2:23.17 | 161870 | 172611 
7 | 38:21.37 | 9:23.36 | 172612 | 214872 
8 | 47:44.73 | 3:17.64 | 214873 | 229711 
9 | 51:02.62 | 8:40.52 | 229712 | 268763 
10 | 59:43.39 | 4:32.48 | 268764 | 289211 
11 | 64:16.12 | 4:46.37 | 289212 | 310698 
12 | 69:02.49 | 8:46.50 | 310699 | 350198 


Range status and errors

Selected range

Filename R:\\\\\\\\\\\\\\\\\\\\\\\\\\\\\\\\\\\\\\\\\\\\\\\\\\\\\\\\\\\\\\\\\\\\\\\\\\\\\\\\\\\\\\\\\\\\\\\\\\\\\\\\\\\\\\\\\\\\\\\\\\\\\\\\EAC Rips\\\\\\\\\\\\\\\\\\\\\\\\\\\\\\\\\\\\\\\\\\\\\\\\\\\\\\\\\\\\\\\\\\\\\\\\\\\\\\\\\\\\\\\\\\\\\\\\\\\\\\\\\\\\\\\\\\\\\\\\\\\\\\\\Protoxronia me tin Deutsche Grammophon (2CD)\\\\\\\\\\\\\\\\\\\\\\\\\\\\\\\\\\\\\\\\\\\\\\\\\\\\\\\\\\\\\\\\\\\\\\\\\\\\\\\\\\\\\\\\\\\\\\\\\\\\\\\\\\\\\\\\\\\\\\\\\\\\\\\\ProtoDeutscheCD1\\\\\\\\\\\\\\\\\\\\\\\\\\\\\\\\\\\\\\\\\\\\\\\\\\\\\\\\\\\\\\\\\\\\\\\\\\\\\\\\\\\\\\\\\\\\\\\\\\\\\\\\\\\\\\\\\\\\\\\\\\\\\\\\Wiener Philharmoniker - Best of New Year\\\\\\\\\\\\\\\\\\\\\\\\\\\\\\\\\\\\\\\\\\\\\\\\\\\\\\\\\\\\\\\\\\\\\\\\\\\\\\\\\\\\\\\\\\\\\\\\\\\\\\\\\\\\\\\\\\\\\\\\\\\\\\\'s Concert.wav

Peak level 100.0 %
Extraction speed 6.4 X
Range quality 100.0 %
Test CRC F3C2E021
Copy CRC F3C2E021
Copy OK

No errors occurred


AccurateRip summary

Track 1 cannot be verified as accurate (confidence 11) [9DCC87F4], AccurateRip returned [75DA8B84] (AR v2)
Track 2 cannot be verified as accurate (confidence 11) [E32E26E9], AccurateRip returned [CD863862] (AR v2)
Track 3 cannot be verified as accurate (confidence 11) [7071131A], AccurateRip returned [CE3FFE27] (AR v2)
Track 4 cannot be verified as accurate (confidence 11) [CFD5FFE2], AccurateRip returned [8969271A] (AR v2)
Track 5 cannot be verified as accurate (confidence 11) [D18154B3], AccurateRip returned [9225A72A] (AR v2)
Track 6 cannot be verified as accurate (confidence 11) [D2F96492], AccurateRip returned [6B41AEB1] (AR v2)
Track 7 cannot be verified as accurate (confidence 11) [AA3E731B], AccurateRip returned [1E0E74E3] (AR v2)
Track 8 cannot be verified as accurate (confidence 10) [90CD55A2], AccurateRip returned [C11A68EE] (AR v2)
Track 9 cannot be verified as accurate (confidence 10) [DEC10B22], AccurateRip returned [B905565C] (AR v2)
Track 10 cannot be verified as accurate (confidence 11) [F27ED52F], AccurateRip returned [EF74D6AC] (AR v2)
Track 11 cannot be verified as accurate (confidence 11) [FF3D28DB], AccurateRip returned [82BE9BED] (AR v2)
Track 12 cannot be verified as accurate (confidence 10) [3ADAA7DC], AccurateRip returned [F21331D3] (AR v2)

No tracks could be verified as accurate
You may have a different pressing from the one(s) in the database

End of status report

---- CUETools DB Plugin V2.1.3

[CTDB TOCID: 9Zk6kJuLGJkcS.sihZIRIcSXbPs-] disk not present in database, Submit result: 9Zk6kJuLGJkcS.sihZIRIcSXbPs- has been uploaded


==== Log checksum 301616A1149FF5BD0C962732C880B3EF6DE3EF4005EB9BDE419C4336D7D860FD ====

EAC log CD2
Exact Audio Copy V1.0 beta 3 from 29. August 2011

EAC extraction logfile from 30. December 2011, 15:44

Wiener Philharmoniker / Best of New Year\\\\\\\\\\\\\\\\\\\\\\\\\\\\\\\\\\\\\\\\\\\\\\\\\\\\\\\\\\\\\\\\\\\\\\\\\\\\\\\\\\\\\\\\\\\\\\\\\\\\\\\\\\\\\\\\\\\\\\\\\\\\\\\'s Concert

Used drive : HL-DT-STDVDRAM GH10N Adapter: 1 ID: 1

Read mode : Secure
Utilize accurate stream : Yes
Defeat audio cache : Yes
Make use of C2 pointers : No

Read offset correction : 667
Overread into Lead-In and Lead-Out : No
Fill up missing offset samples with silence : Yes
Delete leading and trailing silent blocks : No
Null samples used in CRC calculations : Yes
Used interface : Native Win32 interface for Win NT & 2000

Used output format : User Defined Encoder
Selected bitrate : 1024 kBit/s
Quality : High
Add ID3 tag : Yes
Command line compressor : C:\\\\\\\\\\\\\\\\\\\\\\\\\\\\\\\\\\\\\\\\\\\\\\\\\\\\\\\\\\\\\\\\\\\\\\\\\\\\\\\\\\\\\\\\\\\\\\\\\\\\\\\\\\\\\\\\\\\\\\\\\\\\\\\\Program Files\\\\\\\\\\\\\\\\\\\\\\\\\\\\\\\\\\\\\\\\\\\\\\\\\\\\\\\\\\\\\\\\\\\\\\\\\\\\\\\\\\\\\\\\\\\\\\\\\\\\\\\\\\\\\\\\\\\\\\\\\\\\\\\\Exact Audio Copy New\\\\\\\\\\\\\\\\\\\\\\\\\\\\\\\\\\\\\\\\\\\\\\\\\\\\\\\\\\\\\\\\\\\\\\\\\\\\\\\\\\\\\\\\\\\\\\\\\\\\\\\\\\\\\\\\\\\\\\\\\\\\\\\\Flac\\\\\\\\\\\\\\\\\\\\\\\\\\\\\\\\\\\\\\\\\\\\\\\\\\\\\\\\\\\\\\\\\\\\\\\\\\\\\\\\\\\\\\\\\\\\\\\\\\\\\\\\\\\\\\\\\\\\\\\\\\\\\\\\flac.exe
Additional command line options : -V -5 -T \\\\\\\\\\\\\\\\\\\\\\\\\\\\\\\\\\\\\\\\\\\\\\\\\\\\\\\\\\\\\\\\\\\\\\\\\\\\\\\\\\\\\\\\\\\\\\\\\\\\\\\\\\\\\\\\\\\\\\\\\\\\\\\"artist=%artist%\\\\\\\\\\\\\\\\\\\\\\\\\\\\\\\\\\\\\\\\\\\\\\\\\\\\\\\\\\\\\\\\\\\\\\\\\\\\\\\\\\\\\\\\\\\\\\\\\\\\\\\\\\\\\\\\\\\\\\\\\\\\\\\" -T \\\\\\\\\\\\\\\\\\\\\\\\\\\\\\\\\\\\\\\\\\\\\\\\\\\\\\\\\\\\\\\\\\\\\\\\\\\\\\\\\\\\\\\\\\\\\\\\\\\\\\\\\\\\\\\\\\\\\\\\\\\\\\\"title=%title%\\\\\\\\\\\\\\\\\\\\\\\\\\\\\\\\\\\\\\\\\\\\\\\\\\\\\\\\\\\\\\\\\\\\\\\\\\\\\\\\\\\\\\\\\\\\\\\\\\\\\\\\\\\\\\\\\\\\\\\\\\\\\\\" -T \\\\\\\\\\\\\\\\\\\\\\\\\\\\\\\\\\\\\\\\\\\\\\\\\\\\\\\\\\\\\\\\\\\\\\\\\\\\\\\\\\\\\\\\\\\\\\\\\\\\\\\\\\\\\\\\\\\\\\\\\\\\\\\"album=%albumtitle%\\\\\\\\\\\\\\\\\\\\\\\\\\\\\\\\\\\\\\\\\\\\\\\\\\\\\\\\\\\\\\\\\\\\\\\\\\\\\\\\\\\\\\\\\\\\\\\\\\\\\\\\\\\\\\\\\\\\\\\\\\\\\\\" -T \\\\\\\\\\\\\\\\\\\\\\\\\\\\\\\\\\\\\\\\\\\\\\\\\\\\\\\\\\\\\\\\\\\\\\\\\\\\\\\\\\\\\\\\\\\\\\\\\\\\\\\\\\\\\\\\\\\\\\\\\\\\\\\"tracknumber=%tracknr2%\\\\\\\\\\\\\\\\\\\\\\\\\\\\\\\\\\\\\\\\\\\\\\\\\\\\\\\\\\\\\\\\\\\\\\\\\\\\\\\\\\\\\\\\\\\\\\\\\\\\\\\\\\\\\\\\\\\\\\\\\\\\\\\" -T \\\\\\\\\\\\\\\\\\\\\\\\\\\\\\\\\\\\\\\\\\\\\\\\\\\\\\\\\\\\\\\\\\\\\\\\\\\\\\\\\\\\\\\\\\\\\\\\\\\\\\\\\\\\\\\\\\\\\\\\\\\\\\\"genre=%genre%\\\\\\\\\\\\\\\\\\\\\\\\\\\\\\\\\\\\\\\\\\\\\\\\\\\\\\\\\\\\\\\\\\\\\\\\\\\\\\\\\\\\\\\\\\\\\\\\\\\\\\\\\\\\\\\\\\\\\\\\\\\\\\\" -5 %source%


TOC of the extracted CD

Track | Start | Length | Start sector | End sector 
---------------------------------------------------------
1 | 0:00.00 | 8:52.16 | 0 | 39915 
2 | 8:52.16 | 3:29.06 | 39916 | 55596 
3 | 12:21.22 | 3:06.53 | 55597 | 69599 
4 | 15:28.00 | 2:04.13 | 69600 | 78912 
5 | 17:32.13 | 9:29.13 | 78913 | 121600 
6 | 27:01.26 | 3:31.43 | 121601 | 137468 
7 | 30:32.69 | 8:21.35 | 137469 | 175078 
8 | 38:54.29 | 2:00.19 | 175079 | 184097 
9 | 40:54.48 | 6:15.41 | 184098 | 212263 
10 | 47:10.14 | 5:20.47 | 212264 | 236310 
11 | 52:30.61 | 4:16.62 | 236311 | 255572 
12 | 56:47.48 | 12:07.57 | 255573 | 310154 
13 | 68:55.30 | 2:28.33 | 310155 | 321287 
14 | 71:23.63 | 1:57.39 | 321288 | 330101 
15 | 73:21.27 | 3:27.07 | 330102 | 345633 


Range status and errors

Selected range

Filename R:\\\\\\\\\\\\\\\\\\\\\\\\\\\\\\\\\\\\\\\\\\\\\\\\\\\\\\\\\\\\\\\\\\\\\\\\\\\\\\\\\\\\\\\\\\\\\\\\\\\\\\\\\\\\\\\\\\\\\\\\\\\\\\\\EAC Rips\\\\\\\\\\\\\\\\\\\\\\\\\\\\\\\\\\\\\\\\\\\\\\\\\\\\\\\\\\\\\\\\\\\\\\\\\\\\\\\\\\\\\\\\\\\\\\\\\\\\\\\\\\\\\\\\\\\\\\\\\\\\\\\\Protoxronia me tin Deutsche Grammophon (2CD)\\\\\\\\\\\\\\\\\\\\\\\\\\\\\\\\\\\\\\\\\\\\\\\\\\\\\\\\\\\\\\\\\\\\\\\\\\\\\\\\\\\\\\\\\\\\\\\\\\\\\\\\\\\\\\\\\\\\\\\\\\\\\\\\ProtoDeutscheCD2\\\\\\\\\\\\\\\\\\\\\\\\\\\\\\\\\\\\\\\\\\\\\\\\\\\\\\\\\\\\\\\\\\\\\\\\\\\\\\\\\\\\\\\\\\\\\\\\\\\\\\\\\\\\\\\\\\\\\\\\\\\\\\\\Wiener Philharmoniker - Best of New Year\\\\\\\\\\\\\\\\\\\\\\\\\\\\\\\\\\\\\\\\\\\\\\\\\\\\\\\\\\\\\\\\\\\\\\\\\\\\\\\\\\\\\\\\\\\\\\\\\\\\\\\\\\\\\\\\\\\\\\\\\\\\\\\'s Concert.wav

Peak level 99.9 %
Extraction speed 6.4 X
Range quality 100.0 %
Test CRC FFC5B8AB
Copy CRC FFC5B8AB
Copy OK

No errors occurred


AccurateRip summary

Track 1 cannot be verified as accurate (confidence 10) [402DD586], AccurateRip returned [53D11B60] (AR v2)
Track 2 cannot be verified as accurate (confidence 10) [6A3529BA], AccurateRip returned [8AA237F1] (AR v2)
Track 3 cannot be verified as accurate (confidence 10) [931EA252], AccurateRip returned [7D2AE172] (AR v2)
Track 4 cannot be verified as accurate (confidence 10) [33477AC4], AccurateRip returned [59815F99] (AR v2)
Track 5 cannot be verified as accurate (confidence 10) [2BEFE956], AccurateRip returned [1CED347F] (AR v2)
Track 6 cannot be verified as accurate (confidence 10) [08BFD0C1], AccurateRip returned [5405BE77] (AR v2)
Track 7 cannot be verified as accurate (confidence 10) [0ED1B85F], AccurateRip returned [E5A212C4] (AR v2)
Track 8 cannot be verified as accurate (confidence 10) [FF73FD86], AccurateRip returned [25DFD1AA] (AR v2)
Track 9 cannot be verified as accurate (confidence 10) [A8F62827], AccurateRip returned [C2F99DB0] (AR v2)
Track 10 cannot be verified as accurate (confidence 10) [39650F90], AccurateRip returned [0FC4E4E9] (AR v2)
Track 11 cannot be verified as accurate (confidence 10) [2F8D1295], AccurateRip returned [1C30CEAE] (AR v2)
Track 12 cannot be verified as accurate (confidence 10) [FD901552], AccurateRip returned [4D527F89] (AR v2)
Track 13 cannot be verified as accurate (confidence 10) [9E4C0E00], AccurateRip returned [1718FE7E] (AR v2)
Track 14 cannot be verified as accurate (confidence 9) [AB7E574F], AccurateRip returned [69EA42D4] (AR v2)
Track 15 cannot be verified as accurate (confidence 9) [B79305AF], AccurateRip returned [4FAC02F3] (AR v2)

No tracks could be verified as accurate
You may have a different pressing from the one(s) in the database

End of status report

---- CUETools DB Plugin V2.1.3

[CTDB TOCID: ssXmdfUMpErpJMJkytNtbN0j0cw-] disk not present in database, Submit result: ssXmdfUMpErpJMJkytNtbN0j0cw- has been uploaded


==== Log checksum 0955F6B4E861D6BCAE75513A5E7D386BF2FD28D18445CD00B8CC29D80E22C1A8 ====

keep seeding plz
ripped by Speedyclick on
appreciate him